name C:\Users\antoi\Documents\MyRepositories\upper-imu-dc\Results\main_tracking\Case_78\FLX01_angularVelocities_groundFrame.mot
datacolumns 4
datarows 105
range 2.54000000 3.58000000
endheader 
time	radius_imu_x	radius_imu_y	radius_imu_z	
          2.54000000	         -0.32597057	         -0.55359184	          0.68854960	
          2.55000000	         -0.31963049	         -0.54135914	          0.68323836	
          2.56000000	         -0.31385388	         -0.52897371	          0.67857053	
          2.57000000	         -0.30858618	         -0.51658780	          0.67450103	
          2.58000000	         -0.30379399	         -0.50435479	          0.67096778	
          2.59000000	         -0.29946161	         -0.49242281	          0.66789551	
          2.60000000	         -0.29558403	         -0.48092769	          0.66520211	
          2.61000000	         -0.29215901	         -0.46998736	          0.66280607	
          2.62000000	         -0.28917964	         -0.45969715	          0.66063339	
          2.63000000	         -0.28662793	         -0.45012475	          0.65862295	
          2.64000000	         -0.28447103	         -0.44130728	          0.65672896	
          2.65000000	         -0.28265930	         -0.43325015	          0.65492064	
          2.66000000	         -0.28112587	         -0.42592884	          0.65317960	
          2.67000000	         -0.27978740	         -0.41929346	          0.65149627	
          2.68000000	         -0.27854650	         -0.41327610	          0.64986636	
          2.69000000	         -0.27729542	         -0.40779810	          0.64828849	
          2.70000000	         -0.27592092	         -0.40277670	          0.64676244	
          2.71000000	         -0.27430961	         -0.39813076	          0.64528841	
          2.72000000	         -0.27235356	         -0.39378674	          0.64386595	
          2.73000000	         -0.26995544	         -0.38968352	          0.64249201	
          2.74000000	         -0.26703242	         -0.38577342	          0.64115846	
          2.75000000	         -0.26351953	         -0.38201951	          0.63984831	
          2.76000000	         -0.25937275	         -0.37839050	          0.63853184	
          2.77000000	         -0.25457064	         -0.37485620	          0.63716516	
          2.78000000	         -0.24911376	         -0.37138654	          0.63569330	
          2.79000000	         -0.24302431	         -0.36794729	          0.63405012	
          2.80000000	         -0.23634554	         -0.36449622	          0.63215293	
          2.81000000	         -0.22913243	         -0.36099181	          0.62991558	
          2.82000000	         -0.22144660	         -0.35739750	          0.62725441	
          2.83000000	         -0.21335539	         -0.35367842	          0.62408465	
          2.84000000	         -0.20492603	         -0.34980534	          0.62032839	
          2.85000000	         -0.19622031	         -0.34575844	          0.61591945	
          2.86000000	         -0.18729060	         -0.34152795	          0.61080368	
          2.87000000	         -0.17817713	         -0.33711359	          0.60493759	
          2.88000000	         -0.16890669	         -0.33252253	          0.59828721	
          2.89000000	         -0.15949364	         -0.32776639	          0.59082776	
          2.90000000	         -0.14994310	         -0.32285792	          0.58254403	
          2.91000000	         -0.14025592	         -0.31780665	          0.57342964	
          2.92000000	         -0.13043475	         -0.31261595	          0.56348562	
          2.93000000	         -0.12049048	         -0.30728399	          0.55271991	
          2.94000000	         -0.11044793	         -0.30180725	          0.54114531	
          2.95000000	         -0.10034933	         -0.29618475	          0.52877706	
          2.96000000	         -0.09025535	         -0.29042246	          0.51563305	
          2.97000000	         -0.08024330	         -0.28453618	          0.50173522	
          2.98000000	         -0.07040266	         -0.27855400	          0.48711166	
          2.99000000	         -0.06082934	         -0.27252054	          0.47179890	
          3.00000000	         -0.05161842	         -0.26649680	          0.45584378	
          3.01000000	         -0.04285687	         -0.26055274	          0.43930467	
          3.02000000	         -0.03461876	         -0.25475720	          0.42225237	
          3.03000000	         -0.02696375	         -0.24917364	          0.40476882	
          3.04000000	         -0.01993506	         -0.24385241	          0.38694408	
          3.05000000	         -0.01355862	         -0.23883141	          0.36887208	
          3.06000000	         -0.00784392	         -0.23414054	          0.35064772	
          3.07000000	         -0.00278509	         -0.22980575	          0.33236456	
          3.08000000	          0.00163779	         -0.22585027	          0.31411215	
          3.09000000	          0.00545651	         -0.22229428	          0.29597288	
          3.10000000	          0.00871176	         -0.21915393	          0.27801829	
          3.11000000	          0.01145016	         -0.21643617	          0.26030704	
          3.12000000	          0.01372111	         -0.21413330	          0.24288491	
          3.13000000	          0.01557436	         -0.21221477	          0.22578730	
          3.14000000	          0.01705722	         -0.21062212	          0.20904331	
          3.15000000	          0.01821186	         -0.20926976	          0.19267966	
          3.16000000	          0.01907336	         -0.20805100	          0.17672311	
          3.17000000	          0.01966899	         -0.20684705	          0.16120197	
          3.18000000	          0.02001932	         -0.20553450	          0.14614695	
          3.19000000	          0.02013948	         -0.20399418	          0.13158966	
          3.20000000	          0.02004011	         -0.20211951	          0.11756009	
          3.21000000	          0.01973018	         -0.19982396	          0.10408422	
          3.22000000	          0.01921809	         -0.19704369	          0.09118152	
          3.23000000	          0.01851047	         -0.19373676	          0.07886299	
          3.24000000	          0.01761149	         -0.18988217	          0.06712996	
          3.25000000	          0.01652212	         -0.18547592	          0.05597425	
          3.26000000	          0.01523933	         -0.18052973	          0.04537825	
          3.27000000	          0.01375646	         -0.17506942	          0.03531571	
          3.28000000	          0.01206489	         -0.16913558	          0.02575298	
          3.29000000	          0.01015639	         -0.16278705	          0.01665041	
          3.30000000	          0.00802654	         -0.15609956	          0.00796505	
          3.31000000	          0.00567802	         -0.14916543	         -0.00034652	
          3.32000000	          0.00312418	         -0.14208580	         -0.00832455	
          3.33000000	          0.00039065	         -0.13496818	         -0.01600445	
          3.34000000	         -0.00248480	         -0.12792494	         -0.02341517	
          3.35000000	         -0.00545178	         -0.12105773	         -0.03057553	
          3.36000000	         -0.00844795	         -0.11445315	         -0.03749333	
          3.37000000	         -0.01140152	         -0.10819227	         -0.04416652	
          3.38000000	         -0.01423242	         -0.10234637	         -0.05058265	
          3.39000000	         -0.01685375	         -0.09696449	         -0.05671695	
          3.40000000	         -0.01917604	         -0.09207959	         -0.06253373	
          3.41000000	         -0.02111085	         -0.08771305	         -0.06798967	
          3.42000000	         -0.02257247	         -0.08385924	         -0.07303442	
          3.43000000	         -0.02348386	         -0.08050338	         -0.07761671	
          3.44000000	         -0.02378109	         -0.07762367	         -0.08168752	
          3.45000000	         -0.02341617	         -0.07518036	         -0.08520058	
          3.46000000	         -0.02236186	         -0.07312741	         -0.08811699	
          3.47000000	         -0.02061294	         -0.07140850	         -0.09041019	
          3.48000000	         -0.01818907	         -0.06997669	         -0.09206938	
          3.49000000	         -0.01513465	         -0.06879939	         -0.09309699	
          3.50000000	         -0.01151835	         -0.06785176	         -0.09351590	
          3.51000000	         -0.00743398	         -0.06712017	         -0.09336775	
          3.52000000	         -0.00299328	         -0.06659256	         -0.09270338	
          3.53000000	          0.00167882	         -0.06626182	         -0.09158244	
          3.54000000	          0.00645267	         -0.06611428	         -0.09007286	
          3.55000000	          0.01120578	         -0.06612538	         -0.08825215	
          3.56000000	          0.01582476	         -0.06626183	         -0.08619947	
          3.57000000	          0.02021376	         -0.06645758	         -0.08398996	
          3.58000000	          0.02430352	         -0.06659771	         -0.08169422	
